<svg width="187" height="50" viewBox="0 0 187 50" fill="none" xmlns="http://www.w3.org/2000/svg">
<path d="M75.77 31.31H83V36.5H70.4V15.5H75.77V31.31ZM104.906 33.8C102.786 35.9 100.186 36.95 97.1059 36.95C94.0259 36.95 91.4159 35.9 89.2759 33.8C87.1559 31.68 86.0959 29.08 86.0959 26C86.0959 22.92 87.1559 20.33 89.2759 18.23C91.4159 16.11 94.0259 15.05 97.1059 15.05C100.186 15.05 102.786 16.11 104.906 18.23C107.046 20.33 108.116 22.92 108.116 26C108.116 29.08 107.046 31.68 104.906 33.8ZM93.0559 30.11C94.1359 31.17 95.4859 31.7 97.1059 31.7C98.7259 31.7 100.076 31.17 101.156 30.11C102.236 29.03 102.776 27.66 102.776 26C102.776 24.34 102.236 22.98 101.156 21.92C100.076 20.84 98.7259 20.3 97.1059 20.3C95.4859 20.3 94.1359 20.84 93.0559 21.92C91.9759 22.98 91.4359 24.34 91.4359 26C91.4359 27.66 91.9759 29.03 93.0559 30.11ZM134.457 24.47V26.6C134.457 29.68 133.487 32.18 131.547 34.1C129.627 36 127.127 36.95 124.047 36.95C120.767 36.95 118.067 35.9 115.947 33.8C113.847 31.7 112.797 29.11 112.797 26.03C112.797 22.95 113.847 20.35 115.947 18.23C118.047 16.11 120.647 15.05 123.747 15.05C125.707 15.05 127.497 15.49 129.117 16.37C130.757 17.25 132.037 18.42 132.957 19.88L128.397 22.49C127.977 21.83 127.357 21.3 126.537 20.9C125.737 20.5 124.827 20.3 123.807 20.3C122.147 20.3 120.787 20.84 119.727 21.92C118.667 23 118.137 24.38 118.137 26.06C118.137 27.68 118.657 29.05 119.697 30.17C120.757 31.29 122.237 31.85 124.137 31.85C126.577 31.85 128.187 30.93 128.967 29.09H123.867V24.47H134.457ZM157.957 33.8C155.837 35.9 153.237 36.95 150.157 36.95C147.077 36.95 144.467 35.9 142.327 33.8C140.207 31.68 139.147 29.08 139.147 26C139.147 22.92 140.207 20.33 142.327 18.23C144.467 16.11 147.077 15.05 150.157 15.05C153.237 15.05 155.837 16.11 157.957 18.23C160.097 20.33 161.167 22.92 161.167 26C161.167 29.08 160.097 31.68 157.957 33.8ZM146.107 30.11C147.187 31.17 148.537 31.7 150.157 31.7C151.777 31.7 153.127 31.17 154.207 30.11C155.287 29.03 155.827 27.66 155.827 26C155.827 24.34 155.287 22.98 154.207 21.92C153.127 20.84 151.777 20.3 150.157 20.3C148.537 20.3 147.187 20.84 146.107 21.92C145.027 22.98 144.487 24.34 144.487 26C144.487 27.66 145.027 29.03 146.107 30.11Z" fill="#414141"/>
<circle cx="25" cy="25" r="25" fill="#5956E9"/>
<g filter="url(#filter0_i_1_12)">
<mask id="mask0_1_12" style="mask-type:alpha" maskUnits="userSpaceOnUse" x="0" y="0" width="50" height="50">
<circle cx="25" cy="25" r="25" fill="url(#paint0_linear_1_12)"/>
</mask>
<g mask="url(#mask0_1_12)">
<path d="M8.494 36.664H21.31V43H1.87V9.4H8.494V36.664ZM44.7644 40.024C42.3004 42.456 39.2924 43.672 35.7404 43.672C32.1884 43.672 29.1804 42.456 26.7164 40.024C24.2844 37.56 23.0684 34.552 23.0684 31C23.0684 27.448 24.2844 24.456 26.7164 22.024C29.1804 19.56 32.1884 18.328 35.7404 18.328C39.2924 18.328 42.3004 19.56 44.7644 22.024C47.2284 24.456 48.4604 27.448 48.4604 31C48.4604 34.552 47.2284 37.56 44.7644 40.024ZM31.0844 35.752C32.3324 37 33.8844 37.624 35.7404 37.624C37.5964 37.624 39.1484 37 40.3964 35.752C41.6444 34.504 42.2684 32.92 42.2684 31C42.2684 29.08 41.6444 27.496 40.3964 26.248C39.1484 25 37.5964 24.376 35.7404 24.376C33.8844 24.376 32.3324 25 31.0844 26.248C29.8684 27.496 29.2604 29.08 29.2604 31C29.2604 32.92 29.8684 34.504 31.0844 35.752Z" fill="white"/>
</g>
</g>
<defs>
<filter id="filter0_i_1_12" x="1.87" y="9.39999" width="46.5904" height="35.272" filterUnits="userSpaceOnUse" color-interpolation-filters="sRGB">
<feFlood flood-opacity="0" result="BackgroundImageFix"/>
<feBlend mode="normal" in="SourceGraphic" in2="BackgroundImageFix" result="shape"/>
<feColorMatrix in="SourceAlpha" type="matrix" values="0 0 0 0 0 0 0 0 0 0 0 0 0 0 0 0 0 0 127 0" result="hardAlpha"/>
<feOffset dy="2"/>
<feGaussianBlur stdDeviation="0.5"/>
<feComposite in2="hardAlpha" operator="arithmetic" k2="-1" k3="1"/>
<feColorMatrix type="matrix" values="0 0 0 0 0 0 0 0 0 0 0 0 0 0 0 0 0 0 0.14 0"/>
<feBlend mode="normal" in2="shape" result="effect1_innerShadow_1_12"/>
</filter>
<linearGradient id="paint0_linear_1_12" x1="0" y1="25" x2="50" y2="25" gradientUnits="userSpaceOnUse">
<stop stop-color="#49ACAA"/>
<stop offset="1" stop-color="#3FC1C0"/>
</linearGradient>
</defs>
</svg>
